<svg width="19" height="19" viewBox="0 0 19 19" fill="none" xmlns="http://www.w3.org/2000/svg">
  <path d="m18.2513 16.7629-4.7623-4.7976c-.1782-.1797-.1962-.457-.0582-.6695 1.9524-2.9942 1.4969-7.1128-1.3833-9.5723-2.7714-2.3668-6.991-2.2853-9.6756.179-3.0827 2.83-3.1607 7.6461-.233 10.5757 2.4972 2.4988 6.361 2.8027 9.199.9255.2132-.1408.4925-.1228.6722.0586l4.7516 4.7868a.526.526 0 0 0 .7452.0012l.7436-.7441a.5268.5268 0 0 0 .0009-.7431l-.0001-.0002Zm-14.625-5.7728c-2.0325-2.034-2.032-5.3425 0-7.3754 2.0314-2.0335 5.3375-2.0335 7.3694 0 2.0317 2.0335 2.0317 5.3422 0 7.3754-2.032 2.0331-5.3375 2.0338-7.3694 0Z" fill="currentColor"/>
</svg>
