<svg width="22" height="10" viewBox="7 0 22 10" fill="none" xmlns="http://www.w3.org/2000/svg">
  <path d="M27.84 3.4h-.02L18.11.01a.31.31 0 0 0-.12-.02c-.03 0-.07 0-.1.02L8.17 3.4a.17.17 0 0 0-.08.03l-.03.02a.21.21 0 0 0-.04.06l-.01.03a.06.06 0 0 0 0 .06v2.82c0 .04.01.08.04.11l.1.07 9.74 3.38a.3.3 0 0 0 .1.02.4.4 0 0 0 .12-.02l9.74-3.38a.24.24 0 0 0 .1-.07.2.2 0 0 0 .04-.11V3.6a.06.06 0 0 0 0-.06v-.01l-.01-.01V3.5a.25.25 0 0 0-.04-.06l-.03-.02a.24.24 0 0 0-.07-.03Zm-1.07.29v.03l-8.75 3.03-8.94-3.03v-.03l4.73-1.6L18.02.66l.87.3.46.16.54.18 6.88 2.39Z" fill="currentColor"/>
</svg>
