<svg width="52" height="29" viewBox="0 0 52 29" fill="none" xmlns="http://www.w3.org/2000/svg">
  <path d="M51.5777 9.8564a.1196.1196 0 0 0-.0414-.0146L26.2786.0632A.733.733 0 0 0 25.9812 0a.6135.6135 0 0 0-.2585.0632L.4431 9.8564a.4149.4149 0 0 0-.2023.0972l-.0732.0487a.6118.6118 0 0 0-.1121.1751v.0218a.1881.1881 0 0 0-.039.0754.2041.2041 0 0 0 0 .1605v8.1808a.4854.4854 0 0 0 .1121.321l.2804.2116 25.3137 9.8029a.7073.7073 0 0 0 .2585.0486.954.954 0 0 0 .2974-.0486l25.3308-9.8029a.6206.6206 0 0 0 .2828-.2116.6305.6305 0 0 0 .0878-.321v-8.1808a.201.201 0 0 0 0-.1751.0756.0756 0 0 0-.0317-.0608v-.0218a.7275.7275 0 0 0-.1122-.1751l-.0585-.0487a.5882.5882 0 0 0-.1999-.0972Zm-2.7866.8438v.0827l-22.7368 8.8033-23.2366-8.8033v-.0827L15.098 6.0553l10.9564-4.1487 2.2478.8657 1.219.4742 1.3872.5375 17.8828 6.9162Z" fill="currentColor"/>
</svg>
